<svg width="42" height="43" viewBox="0 0 42 43" fill="none" xmlns="http://www.w3.org/2000/svg">
<rect y="0.5" width="42" height="42" rx="5" fill="#ACAFFF"/>
<path d="M20.8798 12.501C15.9098 12.567 11.9338 16.651 12.0008 21.621C12.0668 26.589 16.1508 30.564 21.1208 30.499C26.0898 30.432 30.0668 26.348 29.9998 21.379C29.9338 16.41 25.8508 12.435 20.8798 12.501V12.501ZM21.7728 15.536C22.7208 15.536 22.9998 16.074 22.9998 16.688C22.9998 17.456 22.3708 18.166 21.2998 18.166C20.4038 18.166 19.9758 17.724 20.0008 16.995C20.0018 16.381 20.5268 15.536 21.7728 15.536V15.536ZM19.7018 27.5C19.0828 27.5 18.6288 27.098 19.0628 25.329L19.7748 22.193C19.8978 21.69 19.9188 21.489 19.7748 21.489C19.5888 21.489 18.7838 21.837 18.3088 22.178L17.9998 21.636C19.5078 20.289 21.2398 19.5 21.9828 19.5C22.6028 19.5 22.7058 20.284 22.3958 21.49L21.5818 24.787C21.4378 25.369 21.4998 25.57 21.6428 25.57C21.8288 25.57 22.4378 25.328 23.0368 24.825L23.3878 25.328C21.9218 26.896 20.3218 27.5 19.7018 27.5V27.5Z" fill="#1A1A1A"/>
</svg>
