<svg width="42" height="43" viewBox="0 0 42 43" fill="none" xmlns="http://www.w3.org/2000/svg">
<rect y="0.5" width="42" height="42" rx="5" fill="#F2C94C"/>
<path d="M25.1325 16.4336L24.9597 11.66H12.5205V31.4192H29.5197V16.4888L25.1325 16.4336ZM20.3997 23.3096C20.4015 23.5419 20.3691 23.7731 20.3037 23.996C20.2454 24.2026 20.1458 24.3953 20.0109 24.5624C19.8742 24.7251 19.7017 24.8541 19.5069 24.9392C19.2797 25.0369 19.0341 25.0844 18.7869 25.0784C18.4529 25.0888 18.122 25.0119 17.8269 24.8552C17.6146 24.7303 17.4326 24.5598 17.2941 24.356C17.259 24.3079 17.2443 24.2478 17.2533 24.1889C17.2623 24.13 17.2942 24.077 17.3421 24.0416L17.7549 23.7344C17.8041 23.7027 17.8633 23.69 17.9212 23.6988C17.9791 23.7077 18.0318 23.7374 18.0693 23.7824C18.126 23.8566 18.1941 23.9214 18.2709 23.9744C18.3823 24.0521 18.5143 24.0947 18.6501 24.0968C18.7394 24.1049 18.8293 24.092 18.9126 24.059C18.996 24.0261 19.0705 23.9741 19.1301 23.9072C19.2573 23.7004 19.313 23.4575 19.2885 23.216V20.1704C19.2885 20.1106 19.3123 20.0532 19.3546 20.0109C19.3969 19.9686 19.4543 19.9448 19.5141 19.9448H20.2005C20.23 19.9448 20.2592 19.9507 20.2865 19.962C20.3137 19.9734 20.3384 19.99 20.3592 20.011C20.3799 20.032 20.3963 20.0569 20.4074 20.0843C20.4185 20.1116 20.424 20.1409 20.4237 20.1704L20.3997 23.3096ZM24.5733 24.116C24.4872 24.3089 24.3603 24.4809 24.2013 24.62C24.0244 24.7696 23.8208 24.8844 23.6013 24.9584C23.3428 25.0475 23.0707 25.0906 22.7973 25.0856C22.4605 25.0841 22.1265 25.0232 21.8109 24.9056C21.5596 24.813 21.3246 24.681 21.1149 24.5144C21.0905 24.4961 21.0701 24.473 21.0549 24.4466C21.0397 24.4201 21.03 24.3909 21.0264 24.3606C21.0228 24.3303 21.0254 24.2996 21.034 24.2704C21.0426 24.2411 21.0571 24.2139 21.0765 24.1904L21.4437 23.7464C21.4791 23.7027 21.5299 23.6741 21.5856 23.6665C21.6414 23.6589 21.6979 23.6729 21.7437 23.7056C21.8811 23.8044 22.0283 23.8888 22.1829 23.9576C22.3852 24.0519 22.6053 24.1018 22.8285 24.104C23.0149 24.1179 23.2008 24.0716 23.3589 23.972C23.4146 23.9315 23.4595 23.8779 23.4897 23.816C23.5198 23.754 23.5342 23.6856 23.5317 23.6168C23.5337 23.547 23.5162 23.4781 23.4813 23.4176C23.4448 23.3566 23.3947 23.3048 23.3349 23.2664C23.2597 23.2161 23.1792 23.1743 23.0949 23.1416L22.7973 23.0144L22.1421 22.736C22.0091 22.6836 21.8827 22.6159 21.7653 22.5344C21.6447 22.4527 21.5357 22.355 21.4413 22.244C21.3432 22.1296 21.266 21.9988 21.2133 21.8576C21.1544 21.6987 21.1259 21.5302 21.1293 21.3608C21.1315 21.1595 21.1782 20.9611 21.2661 20.78C21.3546 20.5954 21.4814 20.4317 21.6381 20.3C21.8026 20.155 21.9932 20.0426 22.1997 19.9688C22.4313 19.8891 22.6748 19.8493 22.9197 19.8512C23.2175 19.8525 23.5123 19.9103 23.7885 20.0216C24.0003 20.105 24.1979 20.2207 24.3741 20.3648C24.4185 20.4042 24.4467 20.4585 24.4534 20.5175C24.46 20.5764 24.4446 20.6358 24.4101 20.684L24.0957 21.0704C24.0611 21.1142 24.0113 21.1433 23.9562 21.1522C23.9012 21.1611 23.8447 21.149 23.7981 21.1184C23.6946 21.0478 23.5845 20.9875 23.4693 20.9384C23.2949 20.8674 23.108 20.8323 22.9197 20.8352C22.7551 20.8258 22.5915 20.8677 22.4517 20.9552C22.3964 20.9916 22.3514 21.0416 22.3211 21.1005C22.2908 21.1594 22.2763 21.2251 22.2789 21.2912C22.277 21.3612 22.2971 21.4301 22.3365 21.488C22.3801 21.5468 22.4347 21.5965 22.4973 21.6344C22.5738 21.6825 22.654 21.7242 22.7373 21.7592L23.0397 21.8864L23.6877 22.148C23.9706 22.2545 24.2223 22.4303 24.4197 22.6592C24.6073 22.9051 24.7017 23.2095 24.6861 23.5184C24.6915 23.7234 24.653 23.9271 24.5733 24.116Z" fill="#1A1A1A"/>
<path d="M29.8798 15.5816L26.0206 11.36C25.8308 11.1522 25.5999 10.9862 25.3425 10.8725C25.085 10.7589 24.8068 10.7001 24.5254 10.7H13.615C13.0779 10.7006 12.5631 10.9143 12.1833 11.294C11.8036 11.6737 11.59 12.1886 11.5894 12.7256V30.2744C11.59 30.8114 11.8036 31.3263 12.1833 31.706C12.5631 32.0858 13.0779 32.2994 13.615 32.3H28.3846C28.9216 32.2994 29.4364 32.0858 29.8162 31.706C30.1959 31.3263 30.4095 30.8114 30.4102 30.2744V16.94C30.409 16.4369 30.2199 15.9524 29.8798 15.5816ZM28.6006 16.184H26.1142C26.0249 16.1837 25.9365 16.1657 25.8542 16.1311C25.7719 16.0965 25.6973 16.046 25.6346 15.9824C25.5719 15.9188 25.5224 15.8435 25.489 15.7607C25.4555 15.6779 25.4388 15.5893 25.4398 15.5V12.7256L28.6006 16.184ZM28.3846 30.9512H13.615C13.4357 30.9506 13.2639 30.8791 13.1371 30.7523C13.0103 30.6255 12.9388 30.4537 12.9382 30.2744V12.7256C12.9388 12.5463 13.0103 12.3745 13.1371 12.2477C13.2639 12.121 13.4357 12.0494 13.615 12.0488H24.0886V15.5C24.0892 16.037 24.3028 16.5519 24.6825 16.9316C25.0623 17.3114 25.5771 17.525 26.1142 17.5256H29.0614V30.2744C29.0607 30.4537 28.9892 30.6255 28.8624 30.7523C28.7356 30.8791 28.5639 30.9506 28.3846 30.9512Z" fill="#1A1A1A"/>
</svg>
