<svg width="42" height="43" viewBox="0 0 42 43" fill="none" xmlns="http://www.w3.org/2000/svg">
<rect y="0.5" width="42" height="42" rx="5" fill="#CCCCCC"/>
<path fill-rule="evenodd" clip-rule="evenodd" d="M12.5146 14.5857H21.8228V13.6219C21.8228 12.7944 22.4994 12.1175 23.3269 12.1175H29.4852C30.3126 12.1175 30.9896 12.7944 30.9896 13.6219C30.9896 18.874 30.9896 24.126 30.9896 29.3781C30.9896 30.2055 30.3126 30.8822 29.4852 30.8822H12.5146C11.6872 30.8822 11.0103 30.2055 11.0103 29.3781V16.0897C11.0103 15.2623 11.6872 14.5857 12.5146 14.5857V14.5857ZM16.1002 19.188L20.05 23.3136L16.1002 27.4389L14.7271 26.1182L17.4124 23.3136L14.7271 20.5087L16.1002 19.188V19.188ZM20.3363 24.9455H24.9254V26.8558H20.3363V24.9455Z" fill="#1A1A1A"/>
</svg>
