<svg width="222" height="26" viewBox="0 0 222 26" fill="none" xmlns="http://www.w3.org/2000/svg">
<rect width="222" height="26" rx="13" fill="#1A1A1A"/>
<path d="M12.858 16.5V8.8H14.75V14.883H18.567V16.5H12.858ZM23.5108 16.5V8.8H29.3298V10.384H25.4028V11.847H28.1748V13.387H25.4028V14.916H29.3738V16.5H23.5108ZM33.6499 16.5L36.6529 8.8H38.8089L41.7679 16.5H39.7219L39.0839 14.663H36.2679L35.6189 16.5H33.6499ZM36.7849 13.2H38.5779L37.6869 10.648L36.7849 13.2ZM46.17 16.5V8.8H49.91C50.438 8.8 50.9073 8.90633 51.318 9.119C51.7286 9.32433 52.0476 9.614 52.275 9.988C52.5096 10.3547 52.627 10.7763 52.627 11.253C52.627 11.7443 52.495 12.1807 52.231 12.562C51.9743 12.936 51.6296 13.2183 51.197 13.409L52.814 16.5H50.702L49.305 13.673H48.062V16.5H46.17ZM48.062 12.188H49.734C50.0273 12.188 50.262 12.1037 50.438 11.935C50.6213 11.7663 50.713 11.5463 50.713 11.275C50.713 10.9963 50.6213 10.7763 50.438 10.615C50.262 10.4463 50.0273 10.362 49.734 10.362H48.062V12.188ZM57.4243 16.5V8.8H59.2063L62.6273 13.464L62.5943 8.8H64.3763V16.5H62.7043L59.1733 11.682L59.2063 16.5H57.4243ZM69.5033 16.5V8.8H71.3953V16.5H69.5033ZM76.5171 16.5V8.8H78.2991L81.7201 13.464L81.6871 8.8H83.4691V16.5H81.7971L78.2661 11.682L78.2991 16.5H76.5171ZM92.391 16.621C91.819 16.621 91.2873 16.522 90.796 16.324C90.312 16.1187 89.883 15.8363 89.509 15.477C89.1423 15.1103 88.8563 14.6887 88.651 14.212C88.4457 13.728 88.343 13.2073 88.343 12.65C88.343 12.0927 88.4457 11.5757 88.651 11.099C88.8563 10.615 89.1387 10.1933 89.498 9.834C89.8647 9.46733 90.29 9.185 90.774 8.987C91.2653 8.78167 91.7933 8.679 92.358 8.679C93.0033 8.679 93.612 8.811 94.184 9.075C94.7633 9.33167 95.2327 9.69833 95.592 10.175L94.261 11.33C94.019 11.0073 93.7367 10.7653 93.414 10.604C93.0913 10.4427 92.7393 10.362 92.358 10.362C92.0647 10.362 91.7897 10.4207 91.533 10.538C91.2837 10.648 91.0673 10.8093 90.884 11.022C90.7007 11.2273 90.5577 11.4693 90.455 11.748C90.3523 12.0193 90.301 12.32 90.301 12.65C90.301 12.98 90.3523 13.288 90.455 13.574C90.565 13.8527 90.7153 14.0947 90.906 14.3C91.0967 14.5053 91.3203 14.6667 91.577 14.784C91.8337 14.9013 92.116 14.96 92.424 14.96C92.7173 14.96 92.9813 14.905 93.216 14.795C93.458 14.685 93.6633 14.5347 93.832 14.344C94.0007 14.146 94.118 13.9223 94.184 13.673H92.259V12.078H96.219V12.617C96.219 13.1963 96.1237 13.7317 95.933 14.223C95.7497 14.707 95.4857 15.1287 95.141 15.488C94.7963 15.8473 94.3893 16.126 93.92 16.324C93.458 16.522 92.9483 16.621 92.391 16.621ZM106.972 16.5V8.8H110.734C111.284 8.8 111.76 8.91 112.164 9.13C112.574 9.35 112.89 9.65067 113.11 10.032C113.337 10.4133 113.451 10.8497 113.451 11.341C113.451 11.803 113.337 12.221 113.11 12.595C112.89 12.969 112.574 13.266 112.164 13.486C111.76 13.706 111.284 13.816 110.734 13.816H108.864V16.5H106.972ZM108.864 12.309H110.393C110.781 12.309 111.067 12.2173 111.251 12.034C111.441 11.8433 111.537 11.6087 111.537 11.33C111.537 11.0513 111.441 10.8203 111.251 10.637C111.067 10.4537 110.785 10.362 110.404 10.362H108.864V12.309ZM118.301 16.5V8.8H120.193V14.883H124.01V16.5H118.301ZM128.236 16.5L131.239 8.8H133.395L136.354 16.5H134.308L133.67 14.663H130.854L130.205 16.5H128.236ZM131.371 13.2H133.164L132.273 10.648L131.371 13.2ZM140.756 16.5V8.8H142.538L145.959 13.464L145.926 8.8H147.708V16.5H146.036L142.505 11.682L142.538 16.5H140.756Z" fill="white"/>
<rect x="159" y="9.5" width="7" height="7" rx="3.5" fill="white"/>
<rect x="176" y="8" width="10" height="10" rx="5" fill="#FDE047"/>
<rect x="196" y="6" width="14" height="14" rx="7" fill="#FACC15"/>
</svg>
