<svg width="12" height="13" viewBox="0 0 12 13" fill="none" xmlns="http://www.w3.org/2000/svg">
<path d="M6 0.5C6.43957 0.5 6.80188 0.830903 6.85139 1.25719L6.85714 1.35714V5.64286H11.1429C11.6162 5.64286 12 6.02661 12 6.5C12 6.93957 11.6691 7.30188 11.2428 7.35139L11.1429 7.35714H6.85714V11.6429C6.85714 12.1162 6.47339 12.5 6 12.5C5.56043 12.5 5.19812 12.1691 5.14861 11.7428L5.14286 11.6429V7.35714H0.857143C0.383756 7.35714 0 6.97339 0 6.5C0 6.06043 0.330903 5.69812 0.757193 5.64861L0.857143 5.64286H5.14286V1.35714C5.14286 0.883756 5.52661 0.5 6 0.5Z" fill="#111827"/>
</svg>
